<svg id="Camada_1" data-name="Camada 1" xmlns="http://www.w3.org/2000/svg" xmlns:xlink="http://www.w3.org/1999/xlink" viewBox="0 0 1304.4 500"><defs><style>.cls-1{fill:#fff;}.cls-2{fill:url(#Gradiente_sem_nome_5);}.cls-3{fill:url(#Gradiente_sem_nome_5-2);}.cls-4{fill:url(#Gradiente_sem_nome_5-3);}.cls-5{fill:url(#Gradiente_sem_nome_5-4);}.cls-6{fill:url(#Gradiente_sem_nome_5-5);}.cls-7{fill:url(#Gradiente_sem_nome_5-6);}.cls-8{fill:url(#Gradiente_sem_nome_5-7);}.cls-9{fill:url(#Gradiente_sem_nome_5-8);}.cls-10{fill:url(#Gradiente_sem_nome_5-9);}.cls-11{fill:url(#Gradiente_sem_nome_5-10);}.cls-12{fill:url(#Gradiente_sem_nome_5-11);}.cls-13{fill:url(#Gradiente_sem_nome_5-12);}.cls-14{fill:url(#Gradiente_sem_nome_5-13);}.cls-15{fill:url(#Gradiente_sem_nome_28);}</style><linearGradient id="Gradiente_sem_nome_5" x1="574.91" y1="235.88" x2="574.91" y2="179.49" gradientUnits="userSpaceOnUse"><stop offset="0" stop-color="#be1622"/><stop offset="1" stop-color="#e94e1b"/></linearGradient><linearGradient id="Gradiente_sem_nome_5-2" x1="631.81" y1="235.88" x2="631.81" y2="179.49" xlink:href="#Gradiente_sem_nome_5"/><linearGradient id="Gradiente_sem_nome_5-3" x1="718.38" y1="235.07" x2="718.38" y2="179.49" xlink:href="#Gradiente_sem_nome_5"/><linearGradient id="Gradiente_sem_nome_5-4" x1="808.77" y1="254.82" x2="808.77" y2="179.49" xlink:href="#Gradiente_sem_nome_5"/><linearGradient id="Gradiente_sem_nome_5-5" x1="857.23" y1="235.07" x2="857.23" y2="159.54" xlink:href="#Gradiente_sem_nome_5"/><linearGradient id="Gradiente_sem_nome_5-6" x1="904.76" y1="235.88" x2="904.76" y2="179.49" xlink:href="#Gradiente_sem_nome_5"/><linearGradient id="Gradiente_sem_nome_5-7" x1="601.63" y1="319.9" x2="601.63" y2="264.32" xlink:href="#Gradiente_sem_nome_5"/><linearGradient id="Gradiente_sem_nome_5-8" x1="684.64" y1="320.71" x2="684.64" y2="264.32" xlink:href="#Gradiente_sem_nome_5"/><linearGradient id="Gradiente_sem_nome_5-9" x1="752.99" y1="319.9" x2="752.99" y2="264.32" xlink:href="#Gradiente_sem_nome_5"/><linearGradient id="Gradiente_sem_nome_5-10" x1="817.68" y1="320.71" x2="817.68" y2="264.32" xlink:href="#Gradiente_sem_nome_5"/><linearGradient id="Gradiente_sem_nome_5-11" x1="884.71" y1="340.46" x2="884.71" y2="264.32" xlink:href="#Gradiente_sem_nome_5"/><linearGradient id="Gradiente_sem_nome_5-12" x1="954.43" y1="320.71" x2="954.43" y2="264.32" xlink:href="#Gradiente_sem_nome_5"/><linearGradient id="Gradiente_sem_nome_5-13" x1="1010.83" y1="319.9" x2="1010.83" y2="264.32" xlink:href="#Gradiente_sem_nome_5"/><linearGradient id="Gradiente_sem_nome_28" x1="388.73" y1="362.16" x2="388.73" y2="137.84" xlink:href="#Gradiente_sem_nome_5"/></defs><rect class="cls-1" width="1304.4" height="500" rx="47.65"/><path class="cls-2" d="M573.84,235.88a52.88,52.88,0,0,1-13.44-1.67A34.86,34.86,0,0,1,550.12,230l5.19-11.3a39.87,39.87,0,0,0,9,3.72,36.72,36.72,0,0,0,10.13,1.47q5.49,0,7.79-1.32a4.08,4.08,0,0,0,2.29-3.67,3.13,3.13,0,0,0-1.79-2.9,15.56,15.56,0,0,0-4.68-1.47c-1.93-.34-4.09-.68-6.46-1a64.27,64.27,0,0,1-7.08-1.42,27.85,27.85,0,0,1-6.51-2.6,12.82,12.82,0,0,1-4.79-4.63A16.17,16.17,0,0,1,554.5,188a19.71,19.71,0,0,1,8.65-6.26,36.55,36.55,0,0,1,13.54-2.24,53.42,53.42,0,0,1,11.45,1.27,35.21,35.21,0,0,1,9.72,3.52l-5.39,11.29a28.31,28.31,0,0,0-7.89-3.15,34.79,34.79,0,0,0-7.69-.92q-5.49,0-7.94,1.43a4.19,4.19,0,0,0-2.44,3.66,3.41,3.41,0,0,0,1.83,3.11,14.46,14.46,0,0,0,4.79,1.58c2,.34,4.13.67,6.51,1a61,61,0,0,1,7,1.43,27.78,27.78,0,0,1,6.47,2.59,12.82,12.82,0,0,1,4.78,4.64,14.56,14.56,0,0,1,1.78,7.63,14.09,14.09,0,0,1-3.05,8.91,20.14,20.14,0,0,1-8.81,6.16A38.72,38.72,0,0,1,573.84,235.88Z"/><path class="cls-3" d="M626.26,235.88a25.15,25.15,0,0,1-10.89-2.18,17.18,17.18,0,0,1-7.08-6,15,15,0,0,1-2.49-8.45,14.4,14.4,0,0,1,10-14.25q5.19-2,13.64-2h14.45v9.16H631q-5.6,0-7.68,1.83a5.85,5.85,0,0,0-2.09,4.58,5.68,5.68,0,0,0,2.4,4.83,10.54,10.54,0,0,0,6.46,1.79,14.35,14.35,0,0,0,7.28-1.84,10,10,0,0,0,4.53-5.59l2.44,7.43a14.48,14.48,0,0,1-6.31,7.89Q633.49,235.88,626.26,235.88Zm16.7-.81V224.38l-1-2.34V202.9a10.25,10.25,0,0,0-3.11-7.94q-3.11-2.85-9.52-2.85a27.58,27.58,0,0,0-8.6,1.38,23.93,23.93,0,0,0-7.27,3.71l-5.6-11.09a32.22,32.22,0,0,1,10.79-4.94,49.58,49.58,0,0,1,12.82-1.68q12.52,0,19.44,5.91t6.93,18.42v31.25Z"/><path class="cls-4" d="M742.3,179.49a24.89,24.89,0,0,1,11.56,2.6,18.39,18.39,0,0,1,7.89,7.94q2.85,5.34,2.85,13.69v31.35H748.72V206.16q0-6.61-2.7-9.77a9.46,9.46,0,0,0-7.59-3.16,12.5,12.5,0,0,0-6.31,1.58,10.31,10.31,0,0,0-4.22,4.68,18.88,18.88,0,0,0-1.48,8.1v27.48H710.54V206.16q0-6.61-2.69-9.77c-1.8-2.1-4.4-3.16-7.79-3.16a12.26,12.26,0,0,0-6.21,1.58,10.66,10.66,0,0,0-4.28,4.68,18.55,18.55,0,0,0-1.52,8.1v27.48H672.17V180.31h15.17v14.86l-2.85-4.28a19,19,0,0,1,8-8.5,24.36,24.36,0,0,1,11.91-2.9,23.18,23.18,0,0,1,13.23,3.82q5.7,3.81,7.53,11.65l-5.6-1.52a22.38,22.38,0,0,1,8.76-10.13A25.37,25.37,0,0,1,742.3,179.49Z"/><path class="cls-5" d="M779,254.82V180.31h15.16V191.5l-.3,16.29,1,16.18v30.85Zm32.27-18.94a23.25,23.25,0,0,1-12-3,20.33,20.33,0,0,1-8.09-9.31q-2.9-6.27-2.9-15.83T791,191.81a19.35,19.35,0,0,1,8-9.26,23.87,23.87,0,0,1,12.27-3.06,27.74,27.74,0,0,1,14,3.51,25.84,25.84,0,0,1,9.77,9.83,32.41,32.41,0,0,1,0,29.77,26,26,0,0,1-9.77,9.77A27.74,27.74,0,0,1,811.22,235.88Zm-2.65-13a13.65,13.65,0,0,0,7.07-1.84,13.42,13.42,0,0,0,5-5.24,18.48,18.48,0,0,0,0-16.24,13.27,13.27,0,0,0-5-5.14,14,14,0,0,0-7.07-1.78,14.34,14.34,0,0,0-7.13,1.78,13.16,13.16,0,0,0-5,5.14,18.39,18.39,0,0,0,0,16.24,13.3,13.3,0,0,0,5,5.24A14,14,0,0,0,808.57,222.86Z"/><path class="cls-6" d="M849.29,235.07V159.54h15.88v75.53Z"/><path class="cls-7" d="M907.1,235.88a35,35,0,0,1-16.38-3.66,27,27,0,0,1-10.9-10,27.32,27.32,0,0,1-3.86-14.5,28.49,28.49,0,0,1,3.71-14.56,26.14,26.14,0,0,1,10.38-10,31,31,0,0,1,15-3.62,30.31,30.31,0,0,1,14.5,3.46,26,26,0,0,1,10.23,9.77,29.11,29.11,0,0,1,3.77,15.17c0,.61,0,1.31-.1,2.09s-.14,1.51-.21,2.19H888.78V202.9h36.14l-6.21,2.75a14.51,14.51,0,0,0-1.63-7.43,12.69,12.69,0,0,0-4.78-4.94,14,14,0,0,0-7.13-1.78,14.24,14.24,0,0,0-7.18,1.78,12.41,12.41,0,0,0-4.83,5,15.7,15.7,0,0,0-1.73,7.59v2.44a15.1,15.1,0,0,0,2,7.94,13.5,13.5,0,0,0,5.6,5.14,18.93,18.93,0,0,0,8.55,1.78,20.4,20.4,0,0,0,7.59-1.32,18.76,18.76,0,0,0,6-4L929.7,227a24.5,24.5,0,0,1-9.46,6.56A35,35,0,0,1,907.1,235.88Z"/><path class="cls-8" d="M625.55,264.32a24.75,24.75,0,0,1,11.55,2.6,18.31,18.31,0,0,1,7.89,7.93q2.85,5.36,2.85,13.7V319.9H632V291q0-6.62-2.7-9.77a9.41,9.41,0,0,0-7.58-3.16,12.45,12.45,0,0,0-6.31,1.58,10.39,10.39,0,0,0-4.23,4.68,19,19,0,0,0-1.47,8.09V319.9H593.79V291q0-6.62-2.7-9.77c-1.8-2.11-4.39-3.16-7.79-3.16a12.31,12.31,0,0,0-6.21,1.58,10.64,10.64,0,0,0-4.27,4.68,18.38,18.38,0,0,0-1.53,8.09V319.9H555.41V265.13h15.17V280l-2.85-4.28a18.92,18.92,0,0,1,8-8.5,24.42,24.42,0,0,1,11.91-2.9,23.18,23.18,0,0,1,13.23,3.82q5.7,3.81,7.54,11.65l-5.6-1.53a22.38,22.38,0,0,1,8.75-10.12A25.41,25.41,0,0,1,625.55,264.32Z"/><path class="cls-9" d="M679.09,320.71a25,25,0,0,1-10.89-2.19,17.15,17.15,0,0,1-7.08-5.95,15,15,0,0,1-2.49-8.45,14.4,14.4,0,0,1,10-14.25q5.19-2,13.64-2H696.7V297H683.87c-3.73,0-6.29.62-7.68,1.84a5.84,5.84,0,0,0-2.09,4.58,5.71,5.71,0,0,0,2.39,4.83A10.59,10.59,0,0,0,683,310a14.44,14.44,0,0,0,7.28-1.83,10.07,10.07,0,0,0,4.53-5.6l2.44,7.43a14.41,14.41,0,0,1-6.31,7.89Q686.31,320.71,679.09,320.71Zm16.69-.81V309.21l-1-2.34V287.73a10.25,10.25,0,0,0-3.11-7.94q-3.1-2.85-9.52-2.85a27.58,27.58,0,0,0-8.6,1.38,23.93,23.93,0,0,0-7.27,3.71l-5.6-11.09A32,32,0,0,1,671.46,266a49.58,49.58,0,0,1,12.82-1.68q12.53,0,19.44,5.9t6.93,18.43V319.9Z"/><path class="cls-10" d="M758.28,264.32a25.39,25.39,0,0,1,11.66,2.6,18.75,18.75,0,0,1,8.09,7.93q3,5.36,3,13.7V319.9H765.1V291q0-6.62-2.9-9.77T754,278.06a14,14,0,0,0-6.77,1.63,11.42,11.42,0,0,0-4.68,4.78,17.82,17.82,0,0,0-1.68,8.35V319.9H725V265.13h15.17V280.3l-2.85-4.58a20.28,20.28,0,0,1,8.44-8.45A26,26,0,0,1,758.28,264.32Z"/><path class="cls-11" d="M812.13,320.71a25,25,0,0,1-10.89-2.19,17.15,17.15,0,0,1-7.08-5.95,15,15,0,0,1-2.49-8.45,14.4,14.4,0,0,1,10-14.25q5.19-2,13.64-2h14.45V297H816.91c-3.73,0-6.29.62-7.68,1.84a5.84,5.84,0,0,0-2.09,4.58,5.69,5.69,0,0,0,2.4,4.83A10.54,10.54,0,0,0,816,310a14.44,14.44,0,0,0,7.28-1.83,10,10,0,0,0,4.53-5.6l2.44,7.43a14.41,14.41,0,0,1-6.31,7.89Q819.37,320.71,812.13,320.71Zm16.7-.81V309.21l-1-2.34V287.73a10.25,10.25,0,0,0-3.11-7.94q-3.11-2.85-9.52-2.85a27.58,27.58,0,0,0-8.6,1.38,23.93,23.93,0,0,0-7.27,3.71l-5.6-11.09A32,32,0,0,1,804.5,266a49.58,49.58,0,0,1,12.82-1.68q12.52,0,19.44,5.9t6.93,18.43V319.9Z"/><path class="cls-12" d="M881.65,317.25A28.51,28.51,0,0,1,868,313.94a25.34,25.34,0,0,1-9.87-9.26,28.4,28.4,0,0,1,0-27.89,25,25,0,0,1,9.87-9.21,28.82,28.82,0,0,1,13.64-3.26,25.84,25.84,0,0,1,12.37,2.8,19.27,19.27,0,0,1,8.2,8.7q2.94,5.91,2.95,15t-2.95,14.91a19.63,19.63,0,0,1-8.2,8.7A25.51,25.51,0,0,1,881.65,317.25Zm2.55,23.21a58.7,58.7,0,0,1-14.91-1.88,32.34,32.34,0,0,1-12-5.65l6.31-11.51a26.08,26.08,0,0,0,8.8,4.64,34.68,34.68,0,0,0,10.64,1.68q8.34,0,12.21-3.77t3.87-11.2v-8.14l1-13.84-.3-14V265.13h15.06v45.61q0,15.17-7.94,22.44T884.2,340.46Zm.71-36.14a15.52,15.52,0,0,0,7.43-1.73,12.82,12.82,0,0,0,5.09-4.78,14.49,14.49,0,0,0,0-14.1,12.27,12.27,0,0,0-5.09-4.63,17.64,17.64,0,0,0-14.81,0,12.54,12.54,0,0,0-5.19,4.63,13.31,13.31,0,0,0,5.19,18.88A15.63,15.63,0,0,0,884.91,304.32Z"/><path class="cls-13" d="M956.78,320.71a35,35,0,0,1-16.39-3.66,27,27,0,0,1-10.89-10,27.33,27.33,0,0,1-3.87-14.5A28.47,28.47,0,0,1,929.34,278a26.13,26.13,0,0,1,10.39-10,30.94,30.94,0,0,1,15-3.61,30.16,30.16,0,0,1,14.5,3.46,26.07,26.07,0,0,1,10.24,9.77,29.08,29.08,0,0,1,3.76,15.17c0,.61,0,1.31-.1,2.09s-.14,1.51-.2,2.18H938.45v-9.26h36.14l-6.21,2.75a14.49,14.49,0,0,0-1.63-7.43,12.69,12.69,0,0,0-4.78-4.94,13.9,13.9,0,0,0-7.13-1.78,14.1,14.1,0,0,0-7.17,1.78,12.37,12.37,0,0,0-4.84,5,15.8,15.8,0,0,0-1.73,7.58v2.45a15,15,0,0,0,2,7.94,13.48,13.48,0,0,0,5.59,5.14,19.07,19.07,0,0,0,8.55,1.78,20.16,20.16,0,0,0,7.59-1.33,18.6,18.6,0,0,0,6-4l8.45,9.17a24.61,24.61,0,0,1-9.46,6.56A35,35,0,0,1,956.78,320.71Z"/><path class="cls-14" d="M993.83,319.9V265.13H1009v15.58l-2.14-4.58a17.59,17.59,0,0,1,7.84-8.81,26.63,26.63,0,0,1,13.13-3v14.76a17.53,17.53,0,0,0-1.78-.31,16.42,16.42,0,0,0-1.68-.1q-6.72,0-10.69,3.77t-4,11.6V319.9Z"/><circle class="cls-15" cx="388.73" cy="250" r="112.16"/><path class="cls-1" d="M440.21,198.52a15,15,0,0,0-21.2,0l-24.4,24.4-2.52-2.51a7,7,0,0,0-3.69-2,5.06,5.06,0,0,0-.68-.1l-.68,0-.69,0a5.06,5.06,0,0,0-.68.1,7.06,7.06,0,0,0-3.69,2h0a7.24,7.24,0,0,0-1.28,1.73c-.11.21-.21.42-.3.64a7.3,7.3,0,0,0-.49,2c0,.22,0,.45,0,.68a7,7,0,0,0,.13,1.37,7.16,7.16,0,0,0,.69,2,7,7,0,0,0,1.28,1.73l1.63,1.63L341,274.81a5.57,5.57,0,0,0-1.25,1.89l-6.11,15.24a10.13,10.13,0,0,0,13.19,13.19L362,299a5.57,5.57,0,0,0,1.89-1.25l42.65-42.65,1.63,1.63c.18.18.36.34.54.49a7.44,7.44,0,0,0,1.19.79,7.13,7.13,0,0,0,3.33.82h0a7.25,7.25,0,0,0,2-.3,7,7,0,0,0,2.48-1.31c.18-.15.36-.31.54-.49h0a7.13,7.13,0,0,0,2.06-5.74,6.85,6.85,0,0,0-.26-1.35,7.25,7.25,0,0,0-.52-1.29,7.36,7.36,0,0,0-1.28-1.74l-2.51-2.51,24.4-24.4A15,15,0,0,0,440.21,198.52ZM356.74,289l-11.61,4.65L349.78,282l41.83-41.83,7,7Z"/></svg>