<svg id="Camada_1" data-name="Camada 1" xmlns="http://www.w3.org/2000/svg" xmlns:xlink="http://www.w3.org/1999/xlink" viewBox="0 0 1304.4 337.06"><defs><style>.cls-1{fill:#fff;}.cls-2{fill:url(#Gradiente_sem_nome_5);}.cls-3{fill:url(#Gradiente_sem_nome_5-2);}.cls-4{fill:url(#Gradiente_sem_nome_5-3);}.cls-5{fill:url(#Gradiente_sem_nome_5-4);}.cls-6{fill:url(#Gradiente_sem_nome_5-5);}.cls-7{fill:url(#Gradiente_sem_nome_5-6);}.cls-8{fill:url(#Gradiente_sem_nome_5-7);}.cls-9{fill:url(#Gradiente_sem_nome_5-8);}.cls-10{fill:url(#Gradiente_sem_nome_5-9);}.cls-11{fill:url(#Gradiente_sem_nome_5-10);}.cls-12{fill:url(#Gradiente_sem_nome_5-11);}.cls-13{fill:url(#Gradiente_sem_nome_5-12);}.cls-14{fill:url(#Gradiente_sem_nome_5-13);}.cls-15{fill:url(#Gradiente_sem_nome_28);}</style><linearGradient id="Gradiente_sem_nome_5" x1="589.14" y1="157.01" x2="589.14" y2="111" gradientUnits="userSpaceOnUse"><stop offset="0" stop-color="#be1622"/><stop offset="1" stop-color="#e94e1b"/></linearGradient><linearGradient id="Gradiente_sem_nome_5-2" x1="635.56" y1="157.01" x2="635.56" y2="111" xlink:href="#Gradiente_sem_nome_5"/><linearGradient id="Gradiente_sem_nome_5-3" x1="706.2" y1="156.35" x2="706.2" y2="111" xlink:href="#Gradiente_sem_nome_5"/><linearGradient id="Gradiente_sem_nome_5-4" x1="779.95" y1="172.46" x2="779.95" y2="111" xlink:href="#Gradiente_sem_nome_5"/><linearGradient id="Gradiente_sem_nome_5-5" x1="819.48" y1="156.35" x2="819.48" y2="94.72" xlink:href="#Gradiente_sem_nome_5"/><linearGradient id="Gradiente_sem_nome_5-6" x1="858.27" y1="157.01" x2="858.27" y2="111" xlink:href="#Gradiente_sem_nome_5"/><linearGradient id="Gradiente_sem_nome_5-7" x1="610.94" y1="225.56" x2="610.94" y2="180.21" xlink:href="#Gradiente_sem_nome_5"/><linearGradient id="Gradiente_sem_nome_5-8" x1="678.67" y1="226.22" x2="678.67" y2="180.21" xlink:href="#Gradiente_sem_nome_5"/><linearGradient id="Gradiente_sem_nome_5-9" x1="734.44" y1="225.56" x2="734.44" y2="180.21" xlink:href="#Gradiente_sem_nome_5"/><linearGradient id="Gradiente_sem_nome_5-10" x1="787.21" y1="226.22" x2="787.21" y2="180.21" xlink:href="#Gradiente_sem_nome_5"/><linearGradient id="Gradiente_sem_nome_5-11" x1="841.9" y1="242.33" x2="841.9" y2="180.21" xlink:href="#Gradiente_sem_nome_5"/><linearGradient id="Gradiente_sem_nome_5-12" x1="898.79" y1="226.22" x2="898.79" y2="180.21" xlink:href="#Gradiente_sem_nome_5"/><linearGradient id="Gradiente_sem_nome_5-13" x1="944.81" y1="225.56" x2="944.81" y2="180.21" xlink:href="#Gradiente_sem_nome_5"/><linearGradient id="Gradiente_sem_nome_28" x1="437.23" y1="260.04" x2="437.23" y2="77.02" xlink:href="#Gradiente_sem_nome_5"/></defs><rect class="cls-1" width="1304.4" height="337.06" rx="20.92"/><path class="cls-2" d="M588.26,157a43.25,43.25,0,0,1-11-1.37,28.27,28.27,0,0,1-8.39-3.45l4.24-9.21a33.14,33.14,0,0,0,7.35,3,29.9,29.9,0,0,0,8.26,1.2q4.49,0,6.36-1.08a3.32,3.32,0,0,0,1.87-3,2.56,2.56,0,0,0-1.46-2.37,12.94,12.94,0,0,0-3.82-1.2c-1.58-.28-3.34-.55-5.27-.83a55.25,55.25,0,0,1-5.78-1.16,22.57,22.57,0,0,1-5.31-2.12,10.33,10.33,0,0,1-3.9-3.78,11.92,11.92,0,0,1-1.46-6.23,12.12,12.12,0,0,1,2.49-7.52,16.2,16.2,0,0,1,7.06-5.1A29.75,29.75,0,0,1,590.59,111a43.26,43.26,0,0,1,9.34,1,28.86,28.86,0,0,1,7.93,2.86l-4.4,9.22a23,23,0,0,0-6.43-2.57,28.18,28.18,0,0,0-6.27-.75q-4.49,0-6.48,1.16a3.43,3.43,0,0,0-2,3,2.79,2.79,0,0,0,1.5,2.54,11.66,11.66,0,0,0,3.9,1.28q2.42.42,5.32.83a50.14,50.14,0,0,1,5.73,1.17,22.34,22.34,0,0,1,5.27,2.11,10.51,10.51,0,0,1,3.91,3.78,12,12,0,0,1,1.45,6.23,11.5,11.5,0,0,1-2.49,7.27,16.31,16.31,0,0,1-7.19,5A31.5,31.5,0,0,1,588.26,157Z"/><path class="cls-3" d="M631,157a20.29,20.29,0,0,1-8.89-1.79,13.78,13.78,0,0,1-5.77-4.85,12.2,12.2,0,0,1-2-6.9,11.78,11.78,0,0,1,8.14-11.62,31,31,0,0,1,11.13-1.67H645.4v7.48H634.94q-4.58,0-6.27,1.49a4.77,4.77,0,0,0-1.7,3.74,4.67,4.67,0,0,0,1.95,4,8.63,8.63,0,0,0,5.27,1.45,11.8,11.8,0,0,0,5.94-1.49,8.16,8.16,0,0,0,3.7-4.57l2,6.06a11.79,11.79,0,0,1-5.15,6.44A18.26,18.26,0,0,1,631,157Zm13.62-.66v-8.72l-.83-1.91V130.1a8.35,8.35,0,0,0-2.54-6.48c-1.69-1.55-4.27-2.32-7.76-2.32a22.5,22.5,0,0,0-7,1.12,19.77,19.77,0,0,0-5.94,3l-4.57-9a26.29,26.29,0,0,1,8.81-4A40.64,40.64,0,0,1,635.27,111q10.22,0,15.86,4.82t5.65,15v25.5Z"/><path class="cls-4" d="M725.72,111a20.3,20.3,0,0,1,9.42,2.12,15,15,0,0,1,6.44,6.48,23.62,23.62,0,0,1,2.32,11.17v25.58H731V132.76c0-3.6-.74-6.26-2.2-8a7.7,7.7,0,0,0-6.19-2.58,10.12,10.12,0,0,0-5.15,1.29,8.52,8.52,0,0,0-3.45,3.82,15.51,15.51,0,0,0-1.2,6.6v22.43h-13V132.76q0-5.4-2.2-8a7.88,7.88,0,0,0-6.35-2.58,10,10,0,0,0-5.07,1.29,8.71,8.71,0,0,0-3.49,3.82,15,15,0,0,0-1.24,6.6v22.43h-13V111.66h12.38v12.13l-2.33-3.49a15.46,15.46,0,0,1,6.56-6.93,19.87,19.87,0,0,1,9.72-2.37,19,19,0,0,1,10.8,3.11,15,15,0,0,1,6.14,9.51l-4.56-1.24a18.26,18.26,0,0,1,7.14-8.27A20.79,20.79,0,0,1,725.72,111Z"/><path class="cls-5" d="M755.61,172.46v-60.8H768v9.14l-.25,13.29.83,13.2v25.17ZM781.94,157a19,19,0,0,1-9.8-2.49,16.63,16.63,0,0,1-6.6-7.6A30.75,30.75,0,0,1,763.17,134a32.29,32.29,0,0,1,2.24-13,15.87,15.87,0,0,1,6.52-7.56,19.54,19.54,0,0,1,10-2.49,22.62,22.62,0,0,1,11.42,2.86,21.17,21.17,0,0,1,8,8,26.48,26.48,0,0,1,0,24.29,21.13,21.13,0,0,1-8,8A22.62,22.62,0,0,1,781.94,157Zm-2.16-10.63a11.2,11.2,0,0,0,5.77-1.49,11.05,11.05,0,0,0,4.07-4.28,15,15,0,0,0,0-13.25,10.73,10.73,0,0,0-4.07-4.19,11.38,11.38,0,0,0-5.77-1.46,11.58,11.58,0,0,0-5.81,1.46,10.62,10.62,0,0,0-4.11,4.19,15,15,0,0,0,0,13.25,10.93,10.93,0,0,0,4.11,4.28A11.39,11.39,0,0,0,779.78,146.38Z"/><path class="cls-6" d="M813,156.35V94.72h13v61.63Z"/><path class="cls-7" d="M860.18,157a28.53,28.53,0,0,1-13.37-3,21.78,21.78,0,0,1-12-20,23.27,23.27,0,0,1,3-11.87,21.33,21.33,0,0,1,8.48-8.18,25.22,25.22,0,0,1,12.25-3,24.7,24.7,0,0,1,11.83,2.82,21.22,21.22,0,0,1,8.35,8,23.67,23.67,0,0,1,3.07,12.37c0,.5,0,1.07-.08,1.7s-.11,1.24-.17,1.79H845.23V130.1h29.48l-5.06,2.24a11.89,11.89,0,0,0-1.33-6.06,10.45,10.45,0,0,0-3.91-4,11.41,11.41,0,0,0-5.81-1.45,11.65,11.65,0,0,0-5.86,1.45,10.16,10.16,0,0,0-3.94,4.07,12.89,12.89,0,0,0-1.41,6.19v2a12.23,12.23,0,0,0,1.66,6.48,11,11,0,0,0,4.57,4.2,15.53,15.53,0,0,0,7,1.45,16.56,16.56,0,0,0,6.19-1.08,15.21,15.21,0,0,0,4.94-3.24l6.89,7.48a20,20,0,0,1-7.72,5.35A28.48,28.48,0,0,1,860.18,157Z"/><path class="cls-8" d="M630.46,180.21a20.3,20.3,0,0,1,9.42,2.12,15,15,0,0,1,6.44,6.48A23.62,23.62,0,0,1,648.64,200v25.58H635.69V202c0-3.6-.74-6.26-2.2-8a7.7,7.7,0,0,0-6.19-2.58,10.12,10.12,0,0,0-5.15,1.29,8.41,8.41,0,0,0-3.45,3.82,15.51,15.51,0,0,0-1.2,6.6v22.43h-13V202q0-5.4-2.2-8a7.88,7.88,0,0,0-6.35-2.58,10,10,0,0,0-5.07,1.29,8.71,8.71,0,0,0-3.49,3.82,15,15,0,0,0-1.24,6.6v22.43h-13V180.87h12.38V193l-2.33-3.49a15.51,15.51,0,0,1,6.56-6.93,19.87,19.87,0,0,1,9.72-2.37,19,19,0,0,1,10.8,3.11,15,15,0,0,1,6.14,9.51l-4.57-1.24a18.35,18.35,0,0,1,7.15-8.27A20.79,20.79,0,0,1,630.46,180.21Z"/><path class="cls-9" d="M674.14,226.22a20.46,20.46,0,0,1-8.89-1.78,13.94,13.94,0,0,1-5.77-4.86,12.2,12.2,0,0,1-2-6.9,12.52,12.52,0,0,1,1.95-6.93,12.39,12.39,0,0,1,6.19-4.69,30.92,30.92,0,0,1,11.12-1.66h11.8v7.47H678q-4.56,0-6.27,1.49a4.8,4.8,0,0,0-1.7,3.74,4.67,4.67,0,0,0,1.95,4,8.64,8.64,0,0,0,5.28,1.45,11.79,11.79,0,0,0,5.93-1.49,8.16,8.16,0,0,0,3.7-4.57l2,6.06a11.71,11.71,0,0,1-5.15,6.44A18.26,18.26,0,0,1,674.14,226.22Zm13.62-.66v-8.72l-.83-1.91V199.31a8.4,8.4,0,0,0-2.53-6.48c-1.69-1.54-4.28-2.32-7.77-2.32a22.5,22.5,0,0,0-7,1.12,19.83,19.83,0,0,0-5.93,3l-4.57-9a26.24,26.24,0,0,1,8.8-4,40.66,40.66,0,0,1,10.47-1.37q10.22,0,15.86,4.82t5.65,15v25.5Z"/><path class="cls-10" d="M738.75,180.21a20.79,20.79,0,0,1,9.51,2.12,15.35,15.35,0,0,1,6.61,6.48A23,23,0,0,1,757.28,200v25.58h-13V202q0-5.4-2.37-8a8.61,8.61,0,0,0-6.68-2.58,11.5,11.5,0,0,0-5.53,1.33,9.36,9.36,0,0,0-3.82,3.91,14.51,14.51,0,0,0-1.37,6.8v22.1H711.6V180.87H724v12.38l-2.32-3.74a16.53,16.53,0,0,1,6.89-6.89A21.18,21.18,0,0,1,738.75,180.21Z"/><path class="cls-11" d="M782.69,226.22a20.43,20.43,0,0,1-8.89-1.78,13.94,13.94,0,0,1-5.77-4.86,12.2,12.2,0,0,1-2-6.9,11.78,11.78,0,0,1,8.14-11.62,31,31,0,0,1,11.13-1.66h11.8v7.47H786.59q-4.56,0-6.27,1.49a4.8,4.8,0,0,0-1.7,3.74,4.67,4.67,0,0,0,2,4,8.63,8.63,0,0,0,5.27,1.45,11.8,11.8,0,0,0,5.94-1.49,8.16,8.16,0,0,0,3.7-4.57l2,6.06a11.76,11.76,0,0,1-5.15,6.44A18.26,18.26,0,0,1,782.69,226.22Zm13.62-.66v-8.72l-.83-1.91V199.31a8.4,8.4,0,0,0-2.53-6.48c-1.69-1.54-4.28-2.32-7.77-2.32a22.5,22.5,0,0,0-7,1.12,19.77,19.77,0,0,0-5.94,3l-4.56-9a26.24,26.24,0,0,1,8.8-4,40.64,40.64,0,0,1,10.46-1.37q10.22,0,15.87,4.82t5.64,15v25.5Z"/><path class="cls-12" d="M839.41,223.4a23.31,23.31,0,0,1-11.13-2.7,20.76,20.76,0,0,1-8-7.56,23.15,23.15,0,0,1,0-22.76,20.49,20.49,0,0,1,8-7.51,23.63,23.63,0,0,1,11.13-2.66,21.14,21.14,0,0,1,10.09,2.28,15.79,15.79,0,0,1,6.69,7.11,32,32,0,0,1,0,24.37,16,16,0,0,1-6.69,7.1A20.8,20.8,0,0,1,839.41,223.4Zm2.08,18.93a48,48,0,0,1-12.17-1.53,26.49,26.49,0,0,1-9.76-4.61l5.15-9.39a21.15,21.15,0,0,0,7.19,3.78,28.07,28.07,0,0,0,8.68,1.37c4.53,0,7.86-1,10-3.07s3.16-5.09,3.16-9.14V213.1l.83-11.3-.25-11.37v-9.56h12.29v37.21q0,12.38-6.48,18.32T841.49,242.33Zm.58-29.48a12.72,12.72,0,0,0,6.06-1.41,10.45,10.45,0,0,0,4.16-3.91,11.84,11.84,0,0,0,0-11.5,10.08,10.08,0,0,0-4.16-3.78,14.38,14.38,0,0,0-12.08,0,10.3,10.3,0,0,0-4.24,3.78,10.87,10.87,0,0,0,4.24,15.41A12.79,12.79,0,0,0,842.07,212.85Z"/><path class="cls-13" d="M900.7,226.22a28.56,28.56,0,0,1-13.37-3,21.8,21.8,0,0,1-12-20,23.28,23.28,0,0,1,3-11.88,21.31,21.31,0,0,1,8.47-8.18A25.25,25.25,0,0,1,899,180.21,24.71,24.71,0,0,1,910.88,183a21.28,21.28,0,0,1,8.35,8,23.77,23.77,0,0,1,3.07,12.37c0,.5,0,1.07-.09,1.7s-.11,1.24-.16,1.79H885.76v-7.56h29.48l-5.07,2.25a11.81,11.81,0,0,0-1.33-6.07,10.35,10.35,0,0,0-3.9-4,11.41,11.41,0,0,0-5.81-1.45,11.65,11.65,0,0,0-5.86,1.45,10.16,10.16,0,0,0-3.94,4.07,12.77,12.77,0,0,0-1.42,6.19v2a12.23,12.23,0,0,0,1.67,6.48,10.89,10.89,0,0,0,4.56,4.2,15.47,15.47,0,0,0,7,1.45,16.56,16.56,0,0,0,6.19-1.08,15.31,15.31,0,0,0,4.94-3.24l6.89,7.48a20.06,20.06,0,0,1-7.72,5.35A28.49,28.49,0,0,1,900.7,226.22Z"/><path class="cls-14" d="M930.94,225.56V180.87h12.37v12.71l-1.74-3.74a14.37,14.37,0,0,1,6.39-7.18,21.81,21.81,0,0,1,10.72-2.45v12c-.5-.11-1-.19-1.46-.25a12.88,12.88,0,0,0-1.37-.08,12.19,12.19,0,0,0-8.72,3.07q-3.24,3.07-3.24,9.47v21.1Z"/><circle class="cls-15" cx="437.23" cy="168.53" r="91.51"/><path class="cls-1" d="M479.24,126.52a12.24,12.24,0,0,0-17.3,0L442,146.44l-2-2.05a5.86,5.86,0,0,0-3-1.61l-.56-.08-.56,0-.56,0-.55.08a5.85,5.85,0,0,0-3,1.61h0a5.91,5.91,0,0,0-1,1.41,4.9,4.9,0,0,0-.24.52A5.81,5.81,0,0,0,430,148a5.4,5.4,0,0,0,0,.56,6,6,0,0,0,.11,1.12,5.86,5.86,0,0,0,.56,1.6,6.11,6.11,0,0,0,1,1.41l1.33,1.33-34.79,34.8a4.59,4.59,0,0,0-1,1.55l-5,12.43A8.26,8.26,0,0,0,403,213.51l12.44-5a4.71,4.71,0,0,0,1.54-1l34.8-34.8,1.33,1.33c.14.14.29.27.44.4a6,6,0,0,0,1,.64,5.79,5.79,0,0,0,2.72.67h0a6,6,0,0,0,1.63-.24,5.88,5.88,0,0,0,2-1.07c.16-.13.3-.26.45-.4h0a5.88,5.88,0,0,0,1.47-2.47,6,6,0,0,0,.21-2.22,6.89,6.89,0,0,0-.21-1.1,5.65,5.65,0,0,0-.43-1.05,6.17,6.17,0,0,0-1-1.42l-2.05-2.05,19.91-19.91A12.25,12.25,0,0,0,479.24,126.52Zm-68.11,73.79-9.47,3.79,3.8-9.47,34.12-34.13,5.68,5.68Z"/></svg>